<?xml version="1.0" standalone="no"?><!DOCTYPE svg PUBLIC "-//W3C//DTD SVG 1.1//EN" "http://www.w3.org/Graphics/SVG/1.1/DTD/svg11.dtd"><svg t="1706298828058" class="icon" viewBox="0 0 1024 1024" version="1.1" xmlns="http://www.w3.org/2000/svg" p-id="942" xmlns:xlink="http://www.w3.org/1999/xlink" width="200" height="200"><path d="M448 586.752l6.144-4.608 11.264 1.536-7.168 16.384 5.12 6.656 9.216-22.016 13.824 1.536-4.608-6.144-19.456-2.048h-3.072l12.8-10.24-4.608-5.632-24.576 18.944 5.12 5.632z" fill="#B12822" p-id="943"></path><path d="M804.864 427.008c-31.232 0-60.928 7.68-86.528 20.992-23.04-30.72-40.96-54.272-41.984-55.296 1.536-5.12 3.072-8.192 3.584-9.728l-1.024 1.024c-0.512 0.512-1.536 3.072-3.072 7.68 0 0-37.888 110.08-60.416 182.272 11.776-35.84 31.744-95.744 46.08-139.264 0 0 10.752 13.824 26.112 32.768-38.912 30.72-65.536 76.8-70.656 128.512l-8.704 1.024c-0.512 1.536-0.512 2.56-1.024 3.584l9.216-1.024c-0.512 5.12-0.512 10.24-0.512 15.36v9.216l-15.36 1.024c0-2.048 0.512-4.608 1.536-7.168-1.536 6.144-2.56 10.752-3.072 13.824 0 4.096 0.512 7.68 1.536 9.728 0 0.512 0.512 0.512 0.512 1.024l0.512 0.512c0.512 0.512 1.536 1.024 2.048 1.536 4.608 2.048 192-27.136 197.632-28.672 5.632-1.536 9.216-3.584 10.24-6.656 0.512-1.536 1.024-3.584-1.024-6.656-5.632-8.192-129.024-160.256-143.36-177.664v-0.512c1.536-4.096 7.168-20.992 8.704-26.112 16.896 22.528 133.12 176.128 146.432 201.216 4.608 8.704 5.632 15.36 3.584 20.992-0.512 1.024-0.512 1.536-1.024 2.048-3.072 5.12-8.704 7.168-10.24 7.68 0 0-18.432 3.072-45.056 7.168 2.048 3.584 4.608 6.656 7.68 9.216l-16.896 17.92-98.304 22.016c-5.12-9.728-8.704-19.968-11.776-30.208-5.12 1.024-10.24 1.536-14.848 2.56 2.56 10.752 6.656 21.504 11.264 31.232l-6.656 1.536c-4.608-10.24-8.704-20.992-11.264-31.744-3.072 0.512-5.632 1.024-8.192 1.536 3.072 11.264 6.656 22.016 11.264 32.256l-66.048 14.848c16.384-8.704 28.16-25.088 30.208-44.032h0.512v-3.584c0-21.504-11.776-40.448-29.696-50.176 7.68-22.528 20.48-58.88 34.304-97.792 14.336-40.448 29.696-83.456 40.96-115.2v-0.512c0-0.512 0-3.072-3.072-5.632l-0.512-0.512c1.536 2.048 1.536 3.584 1.536 3.584s-50.176 141.824-72.704 205.312l-19.968 2.048c-2.56-0.512-5.632-0.512-8.192-0.512-6.656 0-13.312 1.024-18.944 3.072l-6.144 0.512c-49.152-60.928-153.6-192.512-158.72-201.216-2.56-4.096-2.048-7.68-0.512-10.24-1.024 1.536-2.048 3.072-2.56 4.608-1.024 3.072-0.512 6.144 1.536 9.216 0 0.512 159.232 201.728 159.744 202.24-12.288 6.144-22.016 16.896-27.136 30.208-38.4-47.616-103.424-132.096-151.04-195.072l-3.072-7.68v-0.512l-1.536-1.536v0.512c-0.512 0.512-0.512 1.024-1.024 2.048l1.024-2.048 3.072 6.656s98.816 131.072 151.552 196.096c-2.048 5.632-3.072 11.776-3.072 18.432 0 29.696 22.528 53.76 51.2 56.832l7.168 25.6 3.072 16.384h-16.384v14.848h53.76v-14.848h-22.016l1.024-15.872 1.536-30.208 70.656-15.36c30.208 63.488 95.232 107.52 169.984 107.52 103.936 0 188.416-84.48 188.416-188.416 2.56-101.888-81.92-186.368-185.856-186.368z m-172.544 171.52c-0.512 6.144-1.024 12.288-1.024 18.432v6.656l-6.656 0.512v-7.168c0-6.144 0.512-12.288 1.024-17.92l6.656-0.512z m132.096 15.36l-118.272 8.704v-7.168-5.12h118.784c-0.512 1.024-0.512 2.56-0.512 3.584z m14.336-28.16c-6.656 5.12-11.264 12.8-13.312 20.992h-119.296c0-3.072 0.512-6.144 1.024-9.216l131.072-12.8s0.512 0.512 0.512 1.024z m-3.072-4.608l-128 12.288c5.12-36.864 23.04-69.632 48.64-94.208l-0.512 0.512 76.8 76.288c0.512 2.048 2.048 3.584 3.072 5.12z m-69.632-90.112c15.872 20.48 33.792 43.52 49.152 63.488l-56.832-56.832c2.56-2.56 5.12-4.608 7.68-6.656z m-8.192-10.752c-34.816 27.648-58.88 68.096-65.024 114.176l-6.656 0.512c5.632-48.64 31.232-91.136 67.584-120.32 1.024 2.56 2.56 4.096 4.096 5.632z m-135.68 197.12l-3.072 64.512-1.024 14.336h-8.704l-2.56-15.36-22.016-77.824c0-1.536 0.512-13.312 7.68-18.432 31.232-17.408 29.696 32.256 29.696 32.768z m-1.536-71.68l8.192-1.024c-0.512 1.024-1.024 2.56-1.024 3.584-2.56-1.024-5.12-2.048-7.168-2.56z m175.104-133.632c20.48-10.24 43.52-15.872 68.096-16.384v109.056c-17.92-25.088-44.032-60.928-68.096-92.672z m76.8 104.96c-1.536-2.048-3.072-4.608-4.608-7.168v-114.688c42.496 0.512 81.408 17.408 110.08 45.056l-82.944 88.576c-6.656-6.144-14.336-10.24-22.528-11.776z m32.256 33.28h121.344v5.12c0 41.472-15.872 79.36-41.984 108.032l-84.992-84.992c4.096-6.144 6.144-13.312 6.144-21.504 0-2.56-0.512-4.608-0.512-6.656z m-1.024-3.584c-1.536-5.632-4.096-10.752-7.168-14.848l83.456-88.576c26.624 27.136 43.52 62.976 46.08 103.424h-122.368z m-25.6 48.128c7.68-2.56 13.824-7.68 18.432-13.824l84.48 84.48c-28.672 30.208-69.12 49.152-113.664 49.664v-116.224l10.752-4.096z m-12.288 120.832z m-24.576-125.44c5.632 3.584 11.776 6.144 18.944 7.168l-32.256 7.168 13.312-14.336z m-17.408 18.432l39.936-8.704v115.712c-39.424-0.512-75.776-15.36-103.424-39.424l63.488-67.584z m-6.144 1.536l-59.904 63.488c-13.312-12.288-25.088-27.136-33.28-43.008l93.184-20.48z m47.616 127.488c-71.68 0-133.632-41.984-162.816-102.912l6.656-1.536c28.16 57.856 88.064 97.792 156.672 97.792 96.256 0 174.08-78.336 174.08-174.08 0-96.256-78.336-174.08-174.08-174.08-27.648 0-54.272 6.656-77.824 18.432-1.536-2.048-2.56-3.584-4.096-5.12 24.576-12.288 52.224-19.456 81.408-19.456 99.84 0 180.736 80.896 180.736 180.736 0 99.328-80.896 180.224-180.736 180.224z" fill="#B12822" p-id="944"></path><path d="M406.528 534.016l4.096-3.072-10.752-13.824 19.968-16.384-4.608-6.144-24.576 19.456zM386.56 502.272c4.096 0.512 8.192-0.512 12.288-3.584 3.584-3.072 5.632-6.144 6.144-10.752 0.512-4.096-1.024-8.704-4.096-12.8-3.072-4.096-7.168-6.656-11.776-7.168-4.608-0.512-8.192 0.512-11.776 3.072-3.584 2.56-5.632 6.144-6.144 10.752-0.512 4.096 1.024 8.704 4.096 12.8 3.072 4.608 7.168 7.168 11.264 7.68z m-9.728-17.408c0.512-2.56 2.048-4.608 5.12-7.168 6.144-4.608 11.264-4.608 14.848 0.512 2.048 2.56 2.56 5.12 2.048 7.68-0.512 2.56-2.56 4.608-5.12 7.168-3.584 2.56-6.144 4.096-8.704 3.584-2.56-0.512-4.608-1.536-6.144-3.584-2.048-3.072-2.56-5.632-2.048-8.192zM433.536 566.528l24.54528-19.31264 4.74624 6.03136-24.54016 19.31776zM420.864 552.448c2.56 3.584 5.12 5.632 7.68 6.144 2.56 0.512 4.608 0 6.656-1.536 1.536-1.024 2.56-2.56 2.56-4.608s-0.512-4.096-2.048-6.656c1.536 1.536 3.584 2.56 5.12 3.072s3.584 0 4.608-1.024c1.536-1.024 2.048-2.56 2.56-4.608 0-2.048 0-3.584-1.024-5.12-1.024-1.536-2.048-3.584-3.584-5.632l-9.728-12.8-24.576 18.944 11.776 13.824z m14.336-25.088l5.632 7.168c1.024 1.536 1.536 2.56 2.048 4.096 0 1.536 0 2.56-1.536 3.584-1.024 1.024-2.048 1.024-3.584 0.512-1.536-0.512-2.56-1.024-3.584-2.56l-5.632-7.168 6.656-5.632z m-4.096 15.36c1.024 1.536 2.048 3.072 2.048 4.608 0 1.536-0.512 2.56-1.536 3.584-1.024 1.024-2.048 1.024-3.584 0.512-1.536-0.512-2.56-1.536-4.096-3.072l-6.144-7.68 7.168-5.632 6.144 7.68z" fill="#B12822" p-id="945"></path><path d="M317.952 465.92c48.64 32.256 80.896 87.552 80.896 150.528 0 99.84-80.896 180.736-180.736 180.736s-180.736-80.896-180.736-180.736c0-99.84 80.896-180.736 180.736-180.736 19.456 0 37.888 3.072 55.296 8.704l-3.072 6.144c-16.384-5.12-33.792-8.192-52.224-8.192-96.256 0-174.08 78.336-174.08 174.08 0 96.256 78.336 174.08 174.08 174.08 96.256 0 174.08-78.336 174.08-174.08 0-60.416-30.72-113.664-77.312-144.896-1.536 3.072-3.584 6.656-6.144 11.264 7.68 5.12 14.336 10.752 20.992 16.896l-69.12 73.216c-3.584 6.656-6.144 11.264-6.144 12.288l77.824-82.944c26.624 27.136 43.52 62.976 46.08 103.424h-131.072c0 1.024-0.512 2.56-0.512 3.584h132.096v5.12c0 40.96-15.36 77.824-40.448 105.984h-1.536v1.024l-97.28-97.28-2.56 2.56 98.304 98.304c-28.672 30.208-69.12 49.152-113.664 49.664l-0.512-143.36h-0.512c-1.024 0-2.048-0.512-3.584-0.512l0.512 144.384c-39.424-0.512-75.776-15.36-103.424-39.424l99.328-105.472c-1.536-0.512-2.56-1.024-3.584-1.536l-98.304 104.448c-31.744-29.184-51.712-71.168-51.712-117.76v-5.12h135.68v-3.584-0.512c0-3.584 1.536-7.168 3.584-10.24 3.072-5.632 8.192-10.752 15.872-10.752h2.048c1.024 0 2.048 0 3.584 0.512 4.608-4.096 67.584-142.336 78.848-166.4-2.048-0.512-6.656-2.048-7.68-2.048l2.048-6.656c2.048 0 4.096 0.512 6.144 0.512 4.096 0 8.704-0.512 11.264-2.56 1.536-1.024 2.56-2.56 3.072-4.608 1.536-8.704-6.656-12.8-11.776-13.824 0 0-1.024 0-2.048-0.512 0 0 0-0.512 0.512-1.536 2.048-6.656 9.728-30.208 9.728-30.208 8.192 1.536 38.4 7.168 47.104 6.144 1.536 1.024 2.56 2.048 2.56 2.048l0.512 0.512 290.816 9.728 4.096-5.12 35.328 3.072c3.072-2.048 5.12-4.096 5.12-4.096l-12.8-1.024 14.848-43.008s30.208-13.824 35.84-13.824 15.36-6.144 9.728-7.68-146.944-14.336-146.944-14.336-21.504 2.048-28.16 10.752-9.728 22.528 6.144 24.576c15.872 2.048 93.184 4.096 93.184 4.096l-10.24 37.376-3.072-0.512-4.096 5.12-289.28-9.728-1.536-1.536c4.096-3.584 6.656-20.48 6.656-20.48v-0.512c2.56 0.512 4.608 0.512 5.12 0.512 8.704 0 10.24-9.728 10.24-9.728s-3.072-1.024-3.072-4.608 3.072-4.096 3.072-6.144 0.512-8.704-3.072-9.728c-3.584-1.024-68.608-8.704-81.92-10.24-5.632-10.24-25.6-12.8-37.888-11.264h-0.512c-8.704-1.536-35.84-1.024-35.84-1.024l-12.8-25.088s-11.264 0-14.848 6.144c-3.072 6.144-5.12 10.752 0 15.36 1.024 1.024 1.536 2.56 2.048 4.096-9.728-1.024-29.696-0.512-29.696-0.512l-11.264-22.528s-10.24 0-13.312 5.632-4.608 9.728 0 13.824c4.608 4.608 1.536 17.408-2.56 21.504s-11.264 30.208-6.656 41.984c0 0-7.68 18.432-4.608 20.992 3.072 2.56 21.504-26.624 21.504-26.624s-7.68 0.512-5.12-9.728 8.192-25.6 8.192-25.6l11.776 14.336c-1.024 17.408 4.608 31.232 16.384 40.96-2.048 6.144-4.608 14.336-2.56 16.384 1.536 1.024 6.144-4.096 10.752-10.752 6.656 3.584 25.6 8.704 39.936 9.728 10.752 13.824 36.352 27.136 59.904 30.208l-2.56 8.192-10.752 21.504c-18.944-6.144-38.912-9.728-59.904-9.728-103.936 0-188.416 84.48-188.416 188.416s84.48 188.416 188.416 188.416c103.936 0 188.416-84.48 188.416-188.416 0-65.536-33.28-122.88-83.456-156.672-1.536 2.56-2.56 5.12-3.584 6.656 0-1.024 0-0.512 0 0z m-125.44 139.776h-133.632c2.56-41.984 20.48-79.36 49.152-106.496l90.624 90.112c-5.12 6.656-6.144 14.336-6.144 16.384z m10.24-20.48c-1.024 0.512-1.536 1.024-2.048 1.536l-90.112-90.112c27.648-25.6 65.024-40.96 105.472-41.984v103.424l-13.312 27.136z m16.896-33.792v-96.256c15.36 0 30.72 2.56 44.544 6.656l-44.544 89.6z m81.92-161.28c2.048 0.512 9.216 3.072 7.68 9.216 0 1.024-4.608 3.584-6.656 3.584-1.024-5.632-1.536-11.776-1.024-12.8z m73.216-77.312c2.048 0 4.096 1.536 4.096 4.096 0 2.048-1.536 4.096-4.096 4.096-2.048 0-4.096-1.536-4.096-4.096 0.512-2.048 2.048-4.096 4.096-4.096z m-1.536 12.8c2.048 0 4.096 2.048 4.096 4.096s-2.048 4.096-4.096 4.096-4.096-2.048-4.096-4.096 1.536-4.096 4.096-4.096z m-79.872 77.312l4.608-13.824c-1.024 3.584-0.512 8.704 1.024 14.336-1.536 0-3.584 0-5.632-0.512z m20.992-72.192l-6.144 23.04-10.752 31.232c-11.776-3.072-46.08-12.8-53.248-34.816-4.608-13.824-4.096-23.552 1.024-28.16 5.632-4.608 16.896-3.072 32.768 4.608l1.024 0.512 1.024-0.512s0.512-0.512 1.536-1.024c5.12 1.024 17.92 3.072 32.768 5.12z m-20.48-29.184c2.56 7.168-9.728 17.408-15.36 21.504-3.584-2.048-7.168-3.072-10.752-4.608-1.536-12.288 8.704-24.064 11.776-27.136 7.168 2.56 12.8 5.632 14.336 10.24z m-35.328-10.752s0.512 0 0 0c2.56-0.512 13.824 0 16.896 0.512-4.096 4.608-12.288 14.848-11.264 26.624-3.584-1.024-6.656-1.536-9.728-1.536-5.12-3.072-6.656-9.216-6.656-14.848 4.608-4.096 8.704-8.192 10.752-10.752z m-13.824 14.336c0.512 4.096 1.536 8.704 4.608 11.776-2.56 0.512-7.68 4.608-8.192 5.632-4.608-0.512-7.68-2.56-9.728-4.608 3.584-4.096 8.704-8.704 13.312-12.8z m-23.04 20.48s3.072-2.048 6.656-5.632c2.56 2.048 6.144 4.096 10.752 5.12-1.024 2.56-1.536 5.632-1.536 8.704-6.656 3.584-14.336 2.56-16.896 2.048 0.512-3.584 1.024-7.168 1.024-10.24z m-14.848-17.92l4.608 5.632-0.512 0.512c-2.048-1.024-3.584-1.536-5.12-2.048 0.512-2.56 1.024-4.096 1.024-4.096z m-9.216 28.672c1.536-6.656 4.608-15.36 6.656-21.504 2.048 0.512 6.656 3.072 6.656 3.072s2.048-1.024 2.56-2.048l5.12 6.144c0 0.512-1.024 26.624 2.048 36.352-5.12-1.536-12.8-4.096-19.968-8.192 1.536-2.048 2.048-3.584 2.048-3.584s-7.68 1.024-5.12-10.24z m-28.672-15.872c1.536-1.536 4.096-3.584 7.168-6.656 1.536 1.024 3.072 1.536 5.12 2.048-0.512 1.536-1.024 3.584-1.024 5.632-4.608 2.048-9.216 2.048-11.264 1.536v-2.56z m0 6.656c1.024 0 8.704 0 11.776-1.536 0 2.048 0.512 4.096 1.024 6.656-2.56 4.096-8.704 5.12-11.264 5.12-1.024-3.584-1.536-7.168-1.536-10.24z m8.192 23.552c-2.56-3.072-4.608-6.656-5.632-9.728 3.072-0.512 8.192-1.536 11.264-4.608-0.512 4.608-0.512 9.216 0.512 13.312-2.048 1.024-4.608 1.024-6.144 1.024z m6.144 6.144c-1.024-1.024-2.048-1.536-3.072-2.56 1.024 0 2.56-0.512 4.096-1.024 0 0-0.512 1.536-1.024 3.584z m1.024-29.696c-1.024-6.656 0-14.336 4.096-14.336-1.536 4.096-3.072 9.216-4.096 14.336z m-1.536-14.336c-1.536-0.512-3.072-1.024-4.096-1.536 2.56-2.048 5.12-4.608 7.168-7.168 0.512 1.536 1.024 3.584 2.56 4.608-1.536 0.512-5.12 3.584-5.632 4.096z m6.144-11.264c3.072-3.072 5.632-5.632 8.192-7.68-0.512 7.68-5.632 13.312-5.632 13.312-1.024-1.536-2.048-3.584-2.56-5.632z m9.728 65.024l-6.144-3.072c0.512-0.512 5.632-6.144 7.168-9.728 2.048 1.024 3.584 2.048 5.632 3.072-2.048 5.632-5.12 8.704-6.656 9.728z m4.096 1.536c2.048-2.048 4.608-5.12 6.144-9.728 2.048 1.024 3.584 1.536 5.632 2.048-1.536 5.632-4.096 8.704-5.12 9.728-3.072-1.024-5.12-1.536-6.656-2.048z m15.36 4.096c-1.024 0-4.608-1.024-5.632-1.024 1.536-2.048 3.584-5.12 5.12-9.728 1.024 0.512 2.56 0.512 3.584 1.024 0.512 6.144-2.048 8.704-3.072 9.728z m19.968-33.792c0.512 3.072 1.024 6.144 2.048 9.728-3.584 6.144-12.8 7.68-16.384 7.68-1.536-5.632-2.048-10.752-2.56-15.36 1.024 0 12.8-0.512 16.896-2.048z m-15.36 34.304c1.024-1.536 1.536-3.072 2.048-5.632 0 0 0.512 3.584 1.024 6.144-1.024-0.512-2.048-0.512-3.072-0.512z m10.24 1.024c-3.584-4.608-6.144-9.728-8.192-14.336 4.096-0.512 11.776-1.536 16.384-6.656 1.536 4.608 4.608 9.216 7.68 12.8-4.096 7.68-13.312 8.192-15.872 8.192z m3.072 3.584c4.608-0.512 11.776-2.56 15.872-9.728 2.56 2.048 5.12 4.608 8.192 6.144-3.584 8.192-9.216 12.288-11.776 13.312-5.12-3.072-9.216-6.144-12.288-9.728z m26.112 17.408c-3.584-1.536-7.168-3.072-10.24-5.12 3.072-2.048 8.192-6.656 11.264-13.824 2.56 1.536 5.632 3.072 8.704 4.608-2.56 9.216-8.192 13.312-9.728 14.336z m4.096 1.536c2.56-2.56 6.656-6.656 8.704-14.336 3.072 1.024 5.632 2.56 8.704 3.072-2.56 8.192-6.144 12.8-7.68 14.336-3.584-1.024-6.656-2.048-9.728-3.072z m22.528 6.144c-1.536 0-7.68-1.536-9.216-2.048 2.048-2.56 5.12-7.168 7.168-14.336 2.048 0.512 4.096 1.024 5.632 1.536 1.536 10.24-2.048 13.824-3.584 14.848z" fill="#B12822" p-id="946"></path><path d="M483.328 631.808l4.096-3.072-12.288-15.36 7.168-5.12 9.216 11.776 3.584-2.56-9.216-12.288 6.144-5.12 12.288 14.848 3.584-2.56-16.384-20.992-24.576 19.456z" fill="#B12822" p-id="947"></path><path d="M805.376 797.696c99.84 0 180.736-80.896 180.736-180.736 0-99.84-80.896-180.736-180.736-180.736-29.184 0-56.832 7.168-81.408 19.456 1.536 1.536 2.56 3.584 4.096 5.12 23.552-11.776 49.664-18.432 77.824-18.432 96.256 0 174.08 78.336 174.08 174.08 0 96.256-78.336 174.08-174.08 174.08-68.608 0-128-39.936-156.672-97.792l-6.656 1.536c29.184 61.44 91.136 103.424 162.816 103.424zM625.664 599.04c-0.512 6.144-1.024 11.776-1.024 17.92v7.168l6.656-0.512v-6.656c0-6.144 0.512-12.288 1.024-18.432l-6.656 0.512zM626.176 595.456l6.656-0.512c6.144-46.08 30.208-87.04 65.024-114.176-1.536-1.536-2.56-3.584-4.096-5.12-36.864 28.672-61.952 71.168-67.584 119.808z" fill="#FFD1CF" p-id="948"></path><path d="M630.272 660.992c2.56 11.264 6.656 21.504 11.264 31.744l6.656-1.536c-4.608-9.728-8.704-20.48-11.264-31.232-2.56 0.512-4.608 1.024-6.656 1.024zM392.192 616.448c0 96.256-78.336 174.08-174.08 174.08-96.256 0-174.08-78.336-174.08-174.08 0-96.256 78.336-174.08 174.08-174.08 18.432 0 35.84 2.56 52.224 8.192l3.072-6.144c-17.408-5.632-35.84-8.704-55.296-8.704-99.84 0-180.736 80.896-180.736 180.736 0 99.84 80.896 180.736 180.736 180.736s180.736-80.896 180.736-180.736c0-62.976-32.256-118.272-80.896-150.528 0 0-1.024 2.56-3.072 5.632 46.592 31.744 77.312 84.48 77.312 144.896z" fill="#FFD1CF" p-id="949"></path><path d="M423.936 548.352c1.024 1.536 2.56 2.56 4.096 3.072 1.536 0.512 2.56 0 3.584-0.512 1.024-1.024 1.536-2.048 1.536-3.584 0-1.536-0.512-3.072-2.048-4.608l-6.144-7.68-7.168 5.632 6.144 7.68zM437.76 542.208c1.536 0.512 2.56 0 3.584-0.512 1.024-1.024 1.536-2.048 1.536-3.584 0-1.536-1.024-2.56-2.048-4.096l-5.632-7.168-6.656 5.12 5.632 7.168c1.024 2.048 2.048 3.072 3.584 3.072zM385.024 496.128c2.56 0.512 5.632-0.512 8.704-3.584 2.56-2.048 4.608-4.608 5.12-7.168 0.512-2.56 0-5.12-2.048-7.68-4.096-5.12-8.704-5.12-14.848-0.512-3.072 2.56-4.608 4.608-5.12 7.168-0.512 2.56 0 5.12 2.048 7.168 1.536 2.56 3.584 4.096 6.144 4.608z" fill="#FF0000" p-id="950"></path><path d="M332.8 437.248l1.536 1.536v0.512l3.072 7.68c47.616 62.976 112.64 147.456 151.04 195.072 5.12-12.8 14.848-23.552 27.136-30.208-0.512-0.512-159.744-202.24-159.744-202.24-2.048-3.072-2.56-6.144-1.536-9.216 0.512-1.536 1.536-3.072 2.56-4.608 3.584-4.608 8.704-7.168 8.704-7.168h255.488c9.216-0.512 15.872 1.536 19.968 4.608l0.512 0.512c2.56 2.56 3.072 5.632 3.072 5.632v0.512c-11.264 31.744-26.624 74.24-40.96 115.2-13.824 38.912-26.624 75.264-34.304 97.792 17.408 9.728 29.696 28.16 29.696 50.176V667.648h1.536c3.072-0.512 11.264-2.048 22.016-3.584 2.56-0.512 5.12-1.024 8.192-1.536 2.048-0.512 4.096-0.512 6.656-1.024 4.608-0.512 9.728-1.536 14.848-2.56 36.352-5.632 84.48-13.312 118.784-18.944 26.112-4.096 45.056-7.168 45.056-7.168 1.536-0.512 7.168-2.56 10.24-7.68 0.512-0.512 1.024-1.536 1.024-2.048 2.56-5.632 1.024-12.8-3.584-20.992-13.824-25.088-129.536-178.688-146.432-201.216-2.048 5.12-7.68 22.528-8.704 26.112v0.512c13.824 17.408 137.728 169.472 143.36 177.664 2.048 3.072 1.536 5.12 1.024 6.656-1.024 3.072-4.608 5.12-10.24 6.656-5.632 1.536-193.024 30.72-197.632 28.672-1.024-0.512-1.536-1.024-2.048-1.536l-0.512-0.512c0-0.512-0.512-0.512-0.512-1.024-1.024-2.048-1.536-5.12-1.536-9.728 0.512-3.072 1.536-7.68 3.072-13.824 1.536-5.12 3.072-10.752 5.12-17.92 0.512-1.024 0.512-2.56 1.024-3.584 2.048-7.168 4.608-14.848 7.168-23.04 22.528-72.704 60.416-182.272 60.416-182.272 1.536-4.608 2.56-7.168 3.072-7.68l1.024-1.024c2.56-2.56 7.68-6.656 11.264-9.728h-1.024l-35.328-3.072-4.096 5.12-290.816-9.728-0.512-0.512s-1.024-1.024-2.56-2.048c-8.704 1.024-38.912-4.608-47.104-6.144 0 0-7.68 23.552-9.728 30.208-0.512 1.024-0.512 1.536-0.512 1.536 1.536 0.512 2.048 0.512 2.048 0.512 4.608 1.024 13.312 5.12 11.776 13.824-0.512 2.048-1.536 3.584-3.072 4.608-2.56 2.048-7.168 2.56-11.264 2.56-2.048 0-4.096 0-6.144-0.512l-2.048 6.656c1.024 0 5.12 1.536 7.68 2.048-11.264 24.064-74.24 162.304-78.848 166.4-1.024-0.512-2.048-0.512-3.584-0.512h-2.048c-7.68 0-12.8 5.12-15.872 10.752-2.048 4.096-3.584 7.68-3.584 10.752v3.584c0.512 5.632 4.608 14.336 14.336 18.944 1.024 0.512 2.56 1.024 3.584 1.536 1.024 0.512 2.56 0.512 4.096 1.024 1.024 0 2.048 0.512 3.584 0.512h0.512c7.168 0.512 12.288-1.024 15.872-4.096 1.024-0.512 2.048-1.536 2.56-2.56 4.608-4.608 6.656-10.24 7.68-15.36 0.512-1.536 0.512-2.56 0.512-3.584 0.512-2.56 0-4.096 0-4.608-0.512-0.512 2.56-6.656 7.168-15.872 0.512-0.512 2.56-5.12 6.144-12.288 11.264-21.504 34.816-66.048 48.128-90.112 2.56-4.608 4.608-8.192 6.144-11.264 2.048-3.584 3.072-5.632 3.072-5.632 0-0.512 0.512-0.512 0.512-1.536 1.024-1.536 2.048-3.584 3.584-6.656 3.584-6.656 8.704-15.872 10.24-18.432 0.512-0.512 0.512-1.536 1.024-2.048l-2.048-2.048z m175.104 175.104l-3.584 3.072-11.776-14.848-6.656 5.12 9.728 12.288-3.584 2.56-9.728-12.288-6.656 5.12 11.776 15.36-3.584 3.072-16.384-20.992 24.576-18.944 15.872 20.48z m-35.328-45.056l-12.8 10.24h3.072l19.456 2.048 4.608 6.144-13.824-1.536-9.216 22.016-5.12-6.656 7.168-16.384-11.264-1.536-6.144 4.608-4.608-5.632 24.576-18.944 4.096 5.632z m-10.24-12.8l-24.576 18.944-4.608-5.632 24.576-18.944 4.608 5.632z m-17.92-23.04c1.536 2.048 3.072 4.096 3.584 5.632 1.024 1.536 1.024 3.584 1.024 5.12 0 2.048-1.024 3.584-2.56 4.608-1.536 1.024-3.072 1.536-4.608 1.024s-3.584-1.024-5.12-3.072c1.536 2.56 2.048 4.608 2.048 6.656s-1.024 3.584-2.56 4.608c-2.048 1.536-4.096 2.048-6.656 1.536-2.56-0.512-5.12-2.56-7.68-6.144l-11.264-14.336 24.576-18.944 9.216 13.312z m-24.576-30.72l-20.48 15.872 10.752 13.824-4.096 3.072-15.872-19.968 24.576-18.944 5.12 6.144z m-48.64-18.944c0.512-4.096 2.56-7.68 6.144-10.752 3.584-2.56 7.68-4.096 11.776-3.072 4.608 0.512 8.192 3.072 11.776 7.168 3.072 4.096 4.608 8.704 4.096 12.8-0.512 4.096-2.56 7.68-6.144 10.752-3.584 3.072-7.68 4.096-12.288 3.584-4.096-0.512-8.192-3.072-11.264-7.168-3.584-4.608-4.608-8.704-4.096-13.312z" fill="#FF0000" p-id="951"></path><path d="M541.696 658.432m-12.288 0a12.288 12.288 0 1 0 24.576 0 12.288 12.288 0 1 0-24.576 0Z" fill="#B12822" p-id="952"></path></svg>